<svg version="1.2" xmlns="http://www.w3.org/2000/svg" viewBox="0 0 30 29" width="30" height="29">
	<title>fb-svg</title>
	<style>
		.s0 { fill: #ffffff } 
		.s1 { fill: #9dc41a } 
	</style>
	<g id="Groupe_4">
		<g id="Layer">
			<path id="Ellipse_3-2" class="s0" d="m15 27c-7.2 0-13-5.8-13-13 0-7.2 5.8-13 13-13 7.2 0 13 5.8 13 13 0 7.2-5.8 13-13 13z"/>
		</g>
		<path id="Tracé_5" class="s1" d="m16.4 15.4v8.3h-4.2v-8.3h-1.5v-3.4h1.4v-2q0-0.5 0.1-1 0-0.5 0.2-1 0.1-0.5 0.3-1 0.2-0.4 0.5-0.9 0.4-0.4 0.8-0.8 0.5-0.3 1-0.6 0.6-0.2 1.1-0.3 0.6-0.1 1.2-0.1 0.3 0 0.5 0 0.3 0 0.5 0.1 0.3 0 0.5 0.1 0.3 0.1 0.5 0.2v3.6q-0.1-0.1-0.3-0.2-0.1 0-0.3-0.1-0.2 0-0.4-0.1-0.1 0-0.3 0-0.2 0-0.3 0-0.2 0-0.3 0.1-0.2 0.1-0.3 0.1-0.2 0.1-0.3 0.3-0.1 0.2-0.2 0.4-0.1 0.2-0.2 0.5 0 0.2-0.1 0.5 0 0.3 0.1 0.5v1.7h2.9v3.4z"/>
	</g>
</svg>