<svg xmlns="http://www.w3.org/2000/svg" width="29.038" height="27.397" viewBox="0 0 29.038 27.397">
  <g id="Groupe_118" data-name="Groupe 118" transform="translate(-163.703 -371.886)">
    <path id="Tracé_11" data-name="Tracé 11" d="M474.692,2857.438a7.249,7.249,0,1,1-7.5-6.992,7.249,7.249,0,0,1,7.5,6.992" transform="translate(-289.927 -2478.556)" fill="#ff6f44"/>
    <path id="Tracé_12" data-name="Tracé 12" d="M454.544,2875.877c-.042-3.32,2.566-8.41,5.822-11.366a7.977,7.977,0,0,1,2.618-1.835,14.142,14.142,0,0,1,3.2-.688c4.332-1.676,10.517-.043,13.816,3.647,1.409,1.934,2.992,6.329,3.537,9.815a.428.428,0,0,1-.073.468.778.778,0,0,1-.39.1l-4.438.009-23.275.049" transform="translate(-290.84 -2476.799)" fill="#ff6f44"/>
  </g>
</svg>
