<svg xmlns="http://www.w3.org/2000/svg" xmlns:xlink="http://www.w3.org/1999/xlink" width="44" height="44" viewBox="0 0 44 44">
  <defs>
    <filter id="Ellipse_2" x="0" y="0" width="44" height="44" filterUnits="userSpaceOnUse">
      <feOffset dy="1" input="SourceAlpha"/>
      <feGaussianBlur stdDeviation="3" result="blur"/>
      <feFlood flood-opacity="0.161"/>
      <feComposite operator="in" in2="blur"/>
      <feComposite in="SourceGraphic"/>
    </filter>
  </defs>
  <g id="Composant_9_1" data-name="Composant 9 – 1" transform="translate(9 8)">
    <g transform="matrix(1, 0, 0, 1, -9, -8)" filter="url(#Ellipse_2)">
      <circle id="Ellipse_2-2" data-name="Ellipse 2" cx="13" cy="13" r="13" transform="translate(9 8)" fill="#fff"/>
    </g>
    <g id="Groupe_3" data-name="Groupe 3" transform="translate(-860.705 906.289)">
      <path id="Tracé_2" data-name="Tracé 2" d="M877.539-885.916h-7.031a4.843,4.843,0,0,1-2.012-.272,4.461,4.461,0,0,1-.8-.466,4.5,4.5,0,0,1-.646-.65c.034.044-.073-.1-.089-.128q-.061-.091-.118-.184a3.739,3.739,0,0,1-.253-.487c.028.066-.045-.125-.054-.149-.028-.082-.055-.165-.078-.249a3.673,3.673,0,0,1-.109-.516c.009.073-.01-.138-.012-.165-.006-.09-.008-.181-.009-.272v-.026c0-.069,0-.138,0-.207V-897a3.621,3.621,0,0,1,.11-1,3.562,3.562,0,0,1,2.476-2.529,3.524,3.524,0,0,1,1.061-.13h6.4a14,14,0,0,1,1.62.025,3.6,3.6,0,0,1,1.707.713,3.705,3.705,0,0,1,1.1,1.438,4.917,4.917,0,0,1,.267,1.983v5.588c0,.486,0,.972,0,1.458a3.573,3.573,0,0,1-1.763,3.062,3.547,3.547,0,0,1-1.776.477.671.671,0,0,0,0,1.341,4.957,4.957,0,0,0,4.043-2.15,5.143,5.143,0,0,0,.836-2.984v-5.556c0-.61,0-1.221,0-1.831a4.919,4.919,0,0,0-1.642-3.674A5.036,5.036,0,0,0,877.415-902h-2.133q-2.651,0-5.3,0a5.02,5.02,0,0,0-3.4,1.279,4.924,4.924,0,0,0-1.587,3.634c-.005,1.687,0,3.375,0,5.063v2.338a5.09,5.09,0,0,0,.878,3.022,4.957,4.957,0,0,0,4,2.091c.524,0,1.048,0,1.572,0h6.1A.671.671,0,0,0,877.539-885.916Z" transform="translate(0)" fill="#9dc41a"/>
      <path id="Tracé_3" data-name="Tracé 3" d="M890.11-880.669a3.739,3.739,0,0,1-.709,2.2,3.861,3.861,0,0,1-1.719,1.311,3.755,3.755,0,0,1-2.347.091,3.778,3.778,0,0,1-1.886-1.248,3.779,3.779,0,0,1-.277-4.3,3.783,3.783,0,0,1,3.9-1.727,3.773,3.773,0,0,1,2.192,1.3,4.236,4.236,0,0,1,.6,1.029,3.727,3.727,0,0,1,.248,1.35.671.671,0,0,0,1.341,0,5.154,5.154,0,0,0-3.377-4.788,5.1,5.1,0,0,0-5.618,1.546,5.137,5.137,0,0,0-.441,5.872,5.148,5.148,0,0,0,5.374,2.351,5.133,5.133,0,0,0,4.063-4.98A.671.671,0,0,0,890.11-880.669Z" transform="translate(-12.661 -12.62)" fill="#9dc41a"/>
      <path id="Tracé_4" data-name="Tracé 4" d="M922.863-890.11a.516.516,0,0,1-.053-.036l.136.1a.492.492,0,0,1-.079-.08l.1.136a.479.479,0,0,1-.055-.1l.068.16a.463.463,0,0,1-.031-.115l.024.178a.482.482,0,0,1,0-.11l-.024.178a.476.476,0,0,1,.032-.119l-.067.16a.5.5,0,0,1,.059-.1l-.1.136a.494.494,0,0,1,.08-.079l-.136.1a.49.49,0,0,1,.1-.055l-.16.067a.489.489,0,0,1,.115-.031l-.178.024a.488.488,0,0,1,.11,0l-.178-.024a.48.48,0,0,1,.119.032l-.16-.068a.486.486,0,0,1,.1.059l-.136-.1a.473.473,0,0,1,.079.08l-.1-.136a.476.476,0,0,1,.055.1l-.068-.16a.489.489,0,0,1,.031.115l-.024-.178a.5.5,0,0,1,0,.11l.024-.178a.474.474,0,0,1-.032.119l.068-.16a.49.49,0,0,1-.059.1l.1-.136a.48.48,0,0,1-.08.079l.136-.1a.486.486,0,0,1-.1.055l.16-.068a.474.474,0,0,1-.115.031l.178-.024a.481.481,0,0,1-.11,0l.178.024a.469.469,0,0,1-.119-.032l.16.067a.51.51,0,0,1-.047-.024.5.5,0,0,0-.249-.079.506.506,0,0,0-.267.012.506.506,0,0,0-.228.12.506.506,0,0,0-.173.188.677.677,0,0,0-.068.516.691.691,0,0,0,.308.4,1.042,1.042,0,0,0,.291.118,1.8,1.8,0,0,0,.238.032.467.467,0,0,0,.075,0,1.592,1.592,0,0,0,.237-.034.969.969,0,0,0,.146-.055,1.136,1.136,0,0,0,.134-.061,1.5,1.5,0,0,0,.193-.146.418.418,0,0,0,.048-.046,1.578,1.578,0,0,0,.146-.19.477.477,0,0,0,.035-.066,1.434,1.434,0,0,0,.089-.224,1.563,1.563,0,0,0,.035-.238.464.464,0,0,0,0-.075,1.77,1.77,0,0,0-.031-.238.482.482,0,0,0-.021-.072,1.546,1.546,0,0,0-.093-.214,1.385,1.385,0,0,0-.14-.191,1.074,1.074,0,0,0-.235-.2.444.444,0,0,0-.06-.035,1.517,1.517,0,0,0-.228-.094,1.059,1.059,0,0,0-.308-.042,1.605,1.605,0,0,0-.238.029.48.48,0,0,0-.073.017,1.746,1.746,0,0,0-.216.09.493.493,0,0,0-.065.039,1.557,1.557,0,0,0-.183.144,1.49,1.49,0,0,0-.15.186.519.519,0,0,0-.04.063,1.578,1.578,0,0,0-.095.223.485.485,0,0,0-.019.08,1.448,1.448,0,0,0-.029.248,1.591,1.591,0,0,0,.03.248.483.483,0,0,0,.021.077,1.543,1.543,0,0,0,.1.224,1.346,1.346,0,0,0,.147.2.994.994,0,0,0,.258.209.5.5,0,0,0,.249.079.509.509,0,0,0,.267-.012.505.505,0,0,0,.228-.12.507.507,0,0,0,.172-.188.676.676,0,0,0,.068-.516A.7.7,0,0,0,922.863-890.11Z" transform="translate(-43.989 -8.525)" fill="#9dc41a"/>
    </g>
  </g>
</svg>
