<svg version="1.2" xmlns="http://www.w3.org/2000/svg" viewBox="0 0 28 28" width="28" height="28">
	<title>fb-insta</title>
	<style>
		.s0 { fill: #ffffff } 
		.s1 { fill: #9dc41a } 
	</style>
	<g id="Groupe_4">
		<g id="Composant_9_1">
			<g id="Layer">
				<path id="Ellipse_2-2" class="s0" d="m14 27c-7.2 0-13-5.8-13-13 0-7.2 5.8-13 13-13 7.2 0 13 5.8 13 13 0 7.2-5.8 13-13 13z"/>
			</g>
			<g id="Groupe_3">
				<path id="Tracé_2" class="s1" d="m17.8 21.4h-7q-0.3 0-0.5 0-0.3 0-0.5-0.1-0.3 0-0.5-0.1-0.3 0-0.5-0.1-0.1 0-0.2-0.1-0.1-0.1-0.2-0.1-0.1-0.1-0.2-0.1-0.1-0.1-0.2-0.2-0.1 0-0.2-0.1-0.1-0.1-0.1-0.2-0.1-0.1-0.2-0.1-0.1-0.1-0.2-0.2c0.1 0 0-0.1 0-0.1q-0.1-0.1-0.2-0.2 0-0.1 0-0.1-0.1-0.1-0.1-0.2 0 0-0.1-0.1 0-0.1 0-0.1c0 0.1-0.1-0.1-0.1-0.2q0-0.1 0-0.2-0.1-0.1-0.1-0.1 0-0.1 0-0.2 0 0 0-0.1 0-0.1-0.1-0.1c0.1 0 0-0.2 0-0.2q0-0.1 0-0.3 0-0.1 0-0.2v-7.3q0-0.1 0-0.3 0-0.1 0-0.2 0.1-0.1 0.1-0.3 0-0.1 0-0.2 0.2-0.5 0.4-0.9 0.2-0.4 0.5-0.7 0.4-0.3 0.8-0.6 0.4-0.2 0.8-0.3 0.1-0.1 0.3-0.1 0.1 0 0.2 0 0.2-0.1 0.3-0.1 0.1 0 0.3 0h6.4q0.2 0 0.4 0 0.2 0 0.4 0 0.2 0 0.4 0 0.2 0 0.4 0.1 0.2 0 0.4 0 0.3 0.1 0.5 0.2 0.2 0.1 0.4 0.2 0.2 0.1 0.4 0.3 0.2 0.1 0.3 0.3 0.2 0.1 0.3 0.3 0.2 0.2 0.3 0.4 0.1 0.2 0.2 0.4 0.1 0.2 0.1 0.5 0.1 0.2 0.1 0.5 0.1 0.2 0.1 0.5 0 0.2 0 0.5v5.6q0 0.7 0 1.4 0 0.5-0.2 0.9-0.1 0.5-0.3 0.9-0.2 0.4-0.6 0.7-0.3 0.4-0.7 0.6-0.2 0.1-0.4 0.2-0.2 0.1-0.5 0.2-0.2 0-0.4 0-0.2 0.1-0.5 0.1-0.2 0-0.4 0.2-0.2 0.2-0.2 0.4 0 0.3 0.2 0.5 0.2 0.2 0.4 0.2 0.6 0 1.2-0.1 0.6-0.2 1.1-0.5 0.5-0.2 1-0.6 0.4-0.4 0.8-0.9 0.2-0.4 0.3-0.7 0.2-0.4 0.3-0.8 0.1-0.3 0.2-0.7 0-0.4 0-0.8v-5.6q0-0.9 0-1.8 0-0.5-0.1-1-0.1-0.5-0.3-1-0.2-0.5-0.5-0.9-0.4-0.4-0.7-0.8-0.4-0.3-0.8-0.5-0.4-0.2-0.8-0.4-0.4-0.2-0.9-0.2-0.4-0.1-0.9-0.1h-2.1q-2.7 0-5.3 0-0.5 0-0.9 0.1-0.5 0-0.9 0.2-0.5 0.2-0.9 0.4-0.4 0.3-0.7 0.6-0.4 0.3-0.7 0.7-0.3 0.4-0.5 0.9-0.2 0.5-0.3 1-0.1 0.5-0.1 1 0 2.5 0 5.1v2.3q0 0.4 0 0.8 0.1 0.4 0.2 0.8 0.1 0.4 0.3 0.7 0.1 0.4 0.4 0.7 0.3 0.5 0.8 0.9 0.4 0.4 0.9 0.7 0.5 0.2 1.1 0.4 0.6 0.1 1.2 0.1 0.8 0 1.5 0h6.1q0.3 0 0.5-0.2 0.2-0.2 0.2-0.5 0-0.2-0.2-0.4-0.2-0.2-0.5-0.2z"/>
				<path id="Tracé_3" class="s1" d="m17.7 14q0 0.3 0 0.6 0 0.3-0.1 0.6-0.1 0.2-0.3 0.5-0.1 0.3-0.3 0.5-0.1 0.2-0.3 0.4-0.2 0.2-0.4 0.4-0.2 0.1-0.5 0.3-0.2 0.1-0.5 0.2-0.3 0.1-0.6 0.2-0.3 0-0.6 0-0.2 0.1-0.5 0-0.3 0-0.6-0.1-0.3-0.1-0.6-0.2-0.2-0.1-0.5-0.3-0.2-0.1-0.4-0.3-0.2-0.2-0.4-0.4-0.4-0.5-0.6-1-0.2-0.6-0.2-1.2-0.1-0.5 0.1-1.1 0.1-0.6 0.4-1 0.3-0.5 0.7-0.9 0.5-0.4 1-0.6 0.5-0.2 1.1-0.3 0.5-0.1 1.1 0 0.3 0.1 0.6 0.2 0.3 0.1 0.6 0.3 0.3 0.2 0.5 0.4 0.3 0.2 0.5 0.4 0.1 0.1 0.2 0.3 0.1 0.1 0.1 0.2 0.1 0.1 0.2 0.3 0 0.1 0.1 0.3 0.1 0.1 0.1 0.3 0.1 0.1 0.1 0.3 0 0.2 0 0.4 0 0.1 0 0.3 0.1 0.3 0.3 0.5 0.1 0.1 0.4 0.2 0.3-0.1 0.5-0.2 0.2-0.2 0.2-0.5 0-0.8-0.3-1.5-0.2-0.8-0.7-1.4-0.4-0.7-1-1.1-0.7-0.5-1.4-0.8-0.7-0.2-1.5-0.3-0.8 0-1.5 0.2-0.8 0.2-1.5 0.6-0.6 0.5-1.1 1.1-0.5 0.6-0.8 1.3-0.3 0.7-0.4 1.5 0 0.8 0.2 1.6 0.1 0.8 0.6 1.4 0.4 0.7 1 1.2 0.6 0.5 1.3 0.9 0.7 0.3 1.5 0.4 0.8 0 1.5-0.1 0.9-0.2 1.6-0.7 0.8-0.4 1.3-1.1 0.6-0.7 0.9-1.5 0.3-0.8 0.3-1.7 0-0.3-0.2-0.5-0.2-0.2-0.5-0.2-0.3 0-0.5 0.2-0.1 0.2-0.2 0.5z"/>
				<path id="Tracé_4" class="s1" d="m19.2 8.7q0-0.1 0-0.1-0.1 0-0.1 0 0 0 0 0 0 0 0 0l0.2 0.1q-0.1 0-0.1 0 0 0 0 0 0 0 0 0 0-0.1 0-0.1l0.1 0.2q0 0 0 0-0.1-0.1-0.1-0.1 0 0 0 0 0 0 0 0l0.1 0.1q0 0 0 0 0 0 0 0 0 0 0-0.1 0 0 0 0v0.2q0 0 0 0 0 0 0-0.1 0 0 0 0 0 0 0 0v0.2q0-0.1 0-0.1 0 0 0 0 0 0 0 0 0 0 0-0.1l-0.1 0.2q0 0 0 0 0 0 0 0 0.1-0.1 0.1-0.1 0 0 0 0l-0.1 0.1q0 0 0 0 0 0 0 0 0 0 0 0 0 0 0.1 0l-0.2 0.1q0 0 0-0.1 0.1 0 0.1 0 0 0 0 0 0 0 0 0l-0.1 0.1q0 0 0 0 0 0 0 0 0 0 0-0.1 0.1 0 0.1 0l-0.2 0.1q0 0 0 0 0 0 0.1 0 0 0 0 0 0 0 0 0l-0.2-0.1q0 0 0.1 0 0 0.1 0 0.1 0 0 0 0 0 0 0.1 0l-0.2-0.1q0 0 0 0 0 0 0 0 0.1 0 0.1 0.1 0 0 0 0l-0.1-0.1q0 0 0 0 0 0 0 0 0 0 0 0 0 0 0 0l-0.1-0.1q0 0 0 0 0.1 0 0.1 0.1 0 0 0 0 0 0 0 0l-0.1-0.1q0 0 0 0 0 0 0 0 0 0 0 0 0 0.1 0.1 0.1l-0.1-0.2q0 0 0 0 0 0 0 0 0 0.1 0 0.1 0 0 0 0l0.1-0.2q-0.1 0-0.1 0.1 0 0 0 0 0 0 0 0 0 0 0 0l0.1-0.1q0 0 0 0 0 0 0 0 0 0-0.1 0.1 0 0 0 0l0.1-0.2q0 0.1 0 0.1 0 0 0 0 0 0 0 0 0 0-0.1 0l0.2-0.1q0 0 0 0-0.1 0-0.1 0.1 0 0 0 0 0 0 0 0l0.1-0.1q0 0 0 0 0 0 0 0 0 0 0 0-0.1 0-0.1 0h0.2q0 0 0 0 0 0 0 0-0.1 0-0.1 0 0 0 0 0h0.2q0 0-0.1 0 0 0 0 0 0 0 0 0 0 0 0 0l0.1 0.1q0 0 0 0 0 0 0 0 0 0 0 0 0 0 0 0-0.1-0.1-0.1-0.1 0 0 0 0-0.1 0-0.1 0 0 0-0.1 0 0 0 0 0-0.1 0-0.1 0 0 0-0.1 0 0 0 0 0-0.1 0-0.1 0 0 0-0.1 0 0 0 0 0.1 0 0-0.1 0 0 0 0 0-0.1 0.1-0.1 0.1 0 0 0 0 0 0.1 0 0.1-0.1 0-0.1 0.1 0 0.1 0 0.1 0 0.1 0 0.2 0 0 0 0.1 0 0.1 0 0.1 0.1 0.1 0.1 0.1 0 0.1 0.1 0.1 0 0.1 0.1 0.1 0 0 0.1 0 0 0.1 0 0.1 0.1 0 0.1 0 0 0 0.1 0 0 0 0 0 0.1 0 0.1 0 0 0 0.1 0.1 0 0 0 0 0 0 0 0 0.1 0 0.1 0 0 0 0 0 0 0 0 0 0 0 0.1 0 0-0.1 0-0.1 0 0 0.1 0 0 0 0 0 0.1 0 0.1 0 0 0 0 0 0 0 0 0 0.1 0 0.1 0 0 0 0 0 0-0.1 0-0.1 0.1 0 0.1 0 0 0 0 0 0 0 0.1 0 0 0 0-0.1 0 0 0.1 0 0 0 0 0 0 0 0 0 0-0.1 0-0.1 0 0 0 0 0 0 0.1 0 0 0 0 0 0-0.1 0-0.1 0 0 0.1 0 0 0 0-0.1 0 0 0 0 0 0 0 0 0 0 0 0 0 0 0 0 0-0.1 0.1-0.1 0 0 0-0.1 0 0 0 0 0 0 0-0.1 0 0 0 0 0-0.1 0-0.1 0.1 0 0.1 0 0-0.1 0-0.1 0 0 0 0 0 0 0 0 0 0 0-0.1 0 0 0 0 0 0 0 0 0-0.1-0.1-0.1 0 0 0-0.1 0 0 0 0 0 0 0 0 0 0 0-0.1 0 0 0 0 0 0 0 0 0 0 0 0 0-0.1 0-0.1 0 0-0.1 0 0-0.1 0-0.1 0 0 0-0.1 0 0-0.1 0 0 0 0 0 0-0.1 0-0.1-0.1 0-0.1 0 0-0.1 0-0.1-0.1 0-0.1 0 0-0.1-0.1-0.1 0 0 0 0 0 0 0 0 0 0 0 0 0 0 0 0 0 0-0.1-0.1 0 0 0 0-0.1 0-0.1 0 0 0 0 0-0.1 0-0.1 0-0.1 0-0.1-0.1 0 0-0.1 0 0 0-0.1 0 0 0 0 0 0 0-0.1 0 0 0.1 0 0.1-0.1 0-0.1 0 0 0 0 0 0 0 0 0 0 0 0 0-0.1 0-0.1 0 0 0 0 0 0 0-0.1 0 0 0 0 0-0.1 0.1-0.1 0.1 0 0 0 0 0 0 0 0 0 0 0 0 0 0 0 0-0.1 0-0.1 0 0 0.1 0 0.1-0.1 0-0.1 0 0 0 0 0.1-0.1 0-0.1 0 0 0 0 0 0 0.1 0 0.1-0.1 0-0.1 0 0 0 0 0.1 0 0 0 0 0 0 0 0 0 0 0 0 0 0 0 0.1-0.1 0-0.1 0 0 0 0 0.1 0 0 0 0 0 0 0 0 0 0.1 0 0.1 0 0 0 0 0 0 0 0 0 0 0 0.1-0.1 0-0.1 0 0 0.1 0 0.1 0 0 0 0.1 0 0 0 0 0 0 0 0.1 0 0 0.1 0 0 0.1 0 0.1 0 0 0 0 0 0 0 0 0 0.1 0 0.1 0 0 0 0 0 0 0 0 0 0.1 0 0.1 0 0 0.1 0.1 0 0 0 0 0 0 0 0.1 0 0 0.1 0 0 0 0 0.1 0 0 0 0 0.1 0 0.1 0.1 0 0 0.1 0 0 0 0 0.1 0.1 0 0.1 0 0 0 0 0 0.1 0.1 0.1 0.1 0 0 0.1 0 0 0 0 0 0.1 0 0.1 0 0 0 0.1 0 0 0 0 0 0.1 0 0.1 0 0 0 0.1 0 0 0 0-0.1 0.1 0 0.1 0 0 0 0 0 0.1-0.1 0.1-0.1 0 0 0 0 0.1 0 0.1-0.1 0 0 0 0 0-0.1 0.1-0.1 0-0.1 0-0.2 0 0 0-0.1 0-0.1 0-0.1 0-0.1-0.1-0.2 0 0 0-0.1-0.1 0-0.1-0.1-0.1 0-0.1 0z"/>
			</g>
		</g>
	</g>
</svg>