<svg xmlns="http://www.w3.org/2000/svg" xmlns:xlink="http://www.w3.org/1999/xlink" width="84.893" height="127.529" viewBox="0 0 84.893 127.529">
  <defs>
    <clipPath id="clip-path">
      <rect id="Rectangle_136" data-name="Rectangle 136" width="78.532" height="123.589" transform="translate(0 0)" fill="#fff"/>
    </clipPath>
  </defs>
  <g id="Groupe_268" data-name="Groupe 268" transform="matrix(-0.999, 0.052, -0.052, -0.999, 84.893, 123.419)">
    <g id="Groupe_267" data-name="Groupe 267" clip-path="url(#clip-path)">
      <path id="Tracé_73" data-name="Tracé 73" d="M20.482,1.584a30.714,30.714,0,0,0-13.9.467A10.173,10.173,0,0,0,2.294,4.105,8.234,8.234,0,0,0,.069,11.152a24.339,24.339,0,0,0,2.448,7.24q2.264,4.916,4.525,9.831c1.641,3.564,3.884,7.6,7.77,8.143,3.575.5,6.793-2.268,10.376-2.713,4.572-.567,8.708,2.7,11.748,6.16A60.325,60.325,0,0,1,50.343,68.13c1.08,5.55,1.473,11.438-.486,16.743s-6.728,9.869-12.375,10.172c-1.591.085-3.468-.044-4.462,1.2a4.516,4.516,0,0,0-.741,2.257c-.473,3.46-.8,7.092.454,10.351,1.458,3.781,4.814,6.463,8.143,8.775,5.294,3.676,11.611,7.032,17.9,5.636a17.878,17.878,0,0,0,6.874-3.425c7.076-5.415,11.234-14.061,12.45-22.887s-.28-17.842-2.895-26.359A204.308,204.308,0,0,0,66.082,47.66c-4.176-9.374-8.425-18.87-14.9-26.831A58.972,58.972,0,0,0,14.95,0" fill="#fff"/>
    </g>
  </g>
</svg>
