<svg version="1.2" xmlns="http://www.w3.org/2000/svg" viewBox="0 0 30 30" width="30" height="30">
	<title>insta-svg</title>
	<style>
		.s0 { fill: #ffffff } 
		.s1 { fill: #9dc41a } 
	</style>
	<g id="Composant_9_1">
		<g id="Layer">
			<path id="Ellipse_2-2" class="s0" d="m15 29c-7.2 0-13-5.8-13-13 0-7.2 5.8-13 13-13 7.2 0 13 5.8 13 13 0 7.2-5.8 13-13 13z"/>
		</g>
		<g id="Groupe_3">
			<path id="Tracé_2" class="s1" d="m19.3 23.6q0.2 0.2 0.2 0.4 0 0.3-0.2 0.5-0.2 0.2-0.5 0.2h-6.1q-0.7 0-1.5 0-0.6 0-1.2-0.1-0.6-0.2-1.1-0.4-0.5-0.3-0.9-0.7-0.5-0.4-0.8-0.9-0.3-0.3-0.4-0.7-0.2-0.3-0.3-0.7-0.1-0.4-0.2-0.8 0-0.4 0-0.8v-2.3q0-2.6 0-5.1 0-0.5 0.1-1 0.1-0.5 0.3-1 0.2-0.5 0.5-0.9 0.3-0.4 0.7-0.7 0.3-0.3 0.7-0.6 0.4-0.2 0.9-0.4 0.4-0.2 0.9-0.2 0.4-0.1 0.9-0.1 2.6 0 5.3 0h2.1q0.5 0 0.9 0.1 0.5 0 0.9 0.2 0.4 0.2 0.8 0.4 0.4 0.2 0.8 0.5 0.3 0.4 0.7 0.8 0.3 0.4 0.5 0.9 0.2 0.5 0.3 1 0.1 0.5 0.1 1 0 0.9 0 1.8v5.6q0 0.4 0 0.8-0.1 0.4-0.2 0.7-0.1 0.4-0.3 0.8-0.1 0.3-0.3 0.7-0.4 0.5-0.8 0.9-0.5 0.4-1 0.6-0.5 0.3-1.1 0.5-0.6 0.1-1.2 0.1-0.2 0-0.4-0.2-0.2-0.2-0.2-0.5 0-0.2 0.2-0.4 0.2-0.2 0.4-0.2 0.3 0 0.5-0.1 0.2 0 0.4 0 0.3-0.1 0.5-0.2 0.2-0.1 0.4-0.2 0.4-0.2 0.7-0.6 0.4-0.3 0.6-0.7 0.2-0.4 0.3-0.9 0.2-0.4 0.2-0.9 0-0.7 0-1.4v-5.6q0-0.3 0-0.5 0-0.3-0.1-0.5 0-0.3-0.1-0.5 0-0.3-0.1-0.5-0.1-0.2-0.2-0.4-0.1-0.2-0.3-0.4-0.1-0.2-0.3-0.3-0.1-0.2-0.3-0.3-0.2-0.2-0.4-0.3-0.2-0.1-0.4-0.2-0.2-0.1-0.5-0.2-0.2 0-0.4 0-0.2-0.1-0.4-0.1-0.2 0-0.4 0-0.2 0-0.4 0-0.2 0-0.4 0h-6.4q-0.2 0-0.3 0-0.1 0-0.3 0.1-0.1 0-0.2 0-0.2 0-0.3 0.1-0.4 0.1-0.8 0.3-0.4 0.3-0.8 0.6-0.3 0.3-0.5 0.7-0.2 0.4-0.4 0.9 0 0.1 0 0.2 0 0.2-0.1 0.3 0 0.1 0 0.2 0 0.2 0 0.3v7.3q0 0.1 0 0.2 0 0.2 0 0.3c0 0 0.1 0.2 0 0.2q0.1 0 0.1 0.1 0 0.1 0 0.1 0 0.1 0 0.2 0 0 0.1 0.1 0 0.1 0 0.2c0 0.1 0.1 0.3 0.1 0.2q0 0 0 0.1 0.1 0.1 0.1 0.1 0 0.1 0.1 0.2 0 0 0 0.1 0.1 0.1 0.2 0.2c0 0 0.1 0.1 0 0.1q0.1 0.1 0.2 0.2 0.1 0 0.2 0.1 0 0.1 0.1 0.2 0.1 0.1 0.2 0.1 0.1 0.1 0.2 0.2 0.1 0 0.2 0.1 0.1 0 0.2 0.1 0.1 0.1 0.2 0.1 0.2 0.1 0.5 0.1 0.2 0.1 0.5 0.1 0.2 0.1 0.5 0.1 0.2 0 0.5 0h7q0.3 0 0.5 0.2z"/>
			<path id="Tracé_3" class="s1" d="m18.9 15.5q0.2-0.2 0.5-0.2 0.3 0 0.5 0.2 0.2 0.2 0.2 0.5 0 0.9-0.3 1.7-0.3 0.8-0.9 1.5-0.5 0.7-1.3 1.1-0.7 0.5-1.6 0.7-0.7 0.1-1.5 0.1-0.8-0.1-1.5-0.4-0.7-0.4-1.3-0.9-0.6-0.5-1-1.2-0.5-0.6-0.6-1.4-0.2-0.8-0.2-1.6 0.1-0.8 0.4-1.5 0.3-0.7 0.8-1.3 0.5-0.6 1.1-1.1 0.7-0.4 1.5-0.6 0.7-0.2 1.5-0.2 0.8 0.1 1.5 0.3 0.7 0.3 1.4 0.8 0.6 0.4 1 1.1 0.5 0.6 0.7 1.4 0.3 0.7 0.3 1.5 0 0.3-0.2 0.5-0.2 0.1-0.5 0.2-0.3-0.1-0.4-0.2-0.2-0.2-0.3-0.5 0-0.2 0-0.3 0-0.2 0-0.4 0-0.2-0.1-0.3 0-0.2-0.1-0.3-0.1-0.2-0.1-0.3-0.1-0.2-0.2-0.3 0-0.1-0.1-0.2-0.1-0.2-0.2-0.3-0.2-0.2-0.5-0.4-0.2-0.2-0.5-0.4-0.3-0.2-0.6-0.3-0.3-0.1-0.6-0.2-0.6-0.1-1.1 0-0.6 0.1-1.1 0.3-0.5 0.2-1 0.6-0.4 0.4-0.7 0.9-0.3 0.4-0.4 1-0.2 0.6-0.1 1.1 0 0.6 0.2 1.2 0.2 0.5 0.6 1 0.2 0.2 0.4 0.4 0.2 0.2 0.4 0.3 0.3 0.2 0.5 0.3 0.3 0.1 0.6 0.2 0.3 0.1 0.6 0.1 0.3 0.1 0.5 0 0.3 0 0.6 0 0.3-0.1 0.6-0.2 0.3-0.1 0.5-0.2 0.3-0.2 0.5-0.3 0.2-0.2 0.4-0.4 0.2-0.2 0.3-0.4 0.2-0.2 0.3-0.5 0.2-0.3 0.3-0.5 0.1-0.3 0.1-0.6 0-0.3 0-0.6 0.1-0.3 0.2-0.5z"/>
			<path id="Tracé_4" class="s1" d="m20.3 10.7q0 0.1 0.1 0.1 0 0.1 0 0.1 0.1 0.1 0.1 0.2 0 0 0 0.1 0 0.1 0 0.1 0 0.1 0 0.2-0.1 0-0.1 0.1 0 0 0 0 0 0.1-0.1 0.1 0 0 0 0 0 0-0.1 0.1 0 0 0 0 0 0-0.1 0 0 0.1 0 0.1-0.1 0-0.1 0 0 0-0.1 0 0 0 0 0-0.1 0-0.1 0 0 0-0.1 0 0 0 0 0-0.1 0-0.1 0 0 0-0.1-0.1 0 0 0 0 0 0-0.1 0 0-0.1 0-0.1-0.1 0-0.1 0 0-0.1-0.1-0.1 0 0 0 0 0-0.1 0-0.1-0.1 0-0.1 0 0-0.1 0-0.1 0 0 0 0-0.1-0.1-0.1-0.1 0 0 0-0.1 0 0 0 0 0 0 0 0 0 0 0-0.1 0 0 0 0 0 0 0 0 0 0 0-0.1-0.1 0-0.1 0 0-0.1 0-0.1 0 0 0 0 0-0.1 0-0.1 0 0 0-0.1 0 0 0.1 0 0-0.1 0-0.1 0 0 0 0 0 0 0 0 0 0 0-0.1 0 0 0 0 0 0 0 0 0-0.1 0-0.1 0 0 0.1 0 0-0.1 0-0.1 0 0 0 0 0 0 0 0 0 0 0 0 0-0.1 0-0.1 0 0 0.1 0 0 0 0-0.1 0 0 0 0 0 0 0.1 0 0-0.1 0-0.1 0 0 0.1 0 0 0 0-0.1 0 0 0.1 0 0 0 0 0 0 0 0 0 0 0 0 0 0 0 0 0 0 0 0.1-0.1 0 0 0 0 0.1 0 0.1 0 0 0 0 0 0 0 0.1 0 0 0 0 0 0 0 0 0 0 0 0 0 0 0 0.1 0 0 0 0-0.1 0.1 0 0.1 0 0 0 0 0 0.1 0 0.1 0 0.1 0 0.1 0 0 0.1 0.1 0.1 0 0 0.1 0 0 0 0 0 0 0 0.1 0 0 0 0 0 0.1 0.1 0.1 0.1 0 0 0 0 0 0 0 0 0 0 0 0 0 0 0 0 0.1 0 0.1 0.1 0 0 0.1 0 0 0 0 0.1 0 0 0.1 0 0 0 0 0.1 0 0 0 0 0.1 0 0.1 0 0 0.1 0 0.1 0 0 0 0.1 0.1 0 0.1 0 0 0 0 0.1 0 0 0 0 0 0 0 0 0 0 0 0 0 0.1 0 0.1 0 0 0 0 0 0 0 0 0 0.1 0 0.1 0.1 0 0.1 0.1 0 0 0 0 0 0 0 0 0 0.1 0 0.1 0 0 0 0 0 0 0 0 0 0 0 0.1 0 0-0.1 0 0 0 0 0.1 0 0 0 0 0 0.1 0 0.1 0 0 0 0 0 0.1 0 0.1-0.1 0-0.1 0.1 0 0 0 0 0 0 0 0 0 0 0 0 0 0 0 0 0 0.1 0 0.1-0.1 0-0.1 0 0 0 0 0.1 0 0 0 0-0.1 0-0.1 0 0 0 0 0 0 0 0 0.1 0 0 0 0 0 0 0 0-0.1 0-0.1 0 0 0.1 0 0.1-0.1 0-0.1 0 0 0 0 0 0 0-0.1 0 0 0 0 0.1 0 0 0 0 0 0-0.1 0 0 0 0 0 0 0 0 0 0 0-0.1 0 0 0 0 0-0.1 0-0.1 0 0 0 0 0.1-0.1 0-0.1 0 0 0 0 0 0 0 0 0 0 0-0.1 0 0 0 0 0 0 0 0 0-0.1-0.1-0.1-0.1 0 0-0.1 0 0 0 0 0-0.1 0-0.1 0 0 0-0.1 0 0 0 0-0.1-0.1 0-0.1 0-0.1 0-0.1-0.1-0.1 0-0.1-0.1 0 0-0.1-0.1 0 0 0-0.1 0-0.1 0-0.1 0-0.1 0-0.2 0 0 0-0.1 0-0.1 0.1-0.1 0 0 0-0.1 0 0 0 0 0 0 0.1-0.1 0 0 0 0 0.1 0 0.1 0 0-0.1 0-0.1 0.1 0 0.1 0 0 0 0.1 0 0 0 0 0 0.1 0 0.1 0 0 0 0.1 0 0 0 0 0 0.1 0 0.1 0 0 0 0.1 0 0 0 0 0 0 0 0.1 0.1 0 0 0 0 0 0 0 0 0 0 0 0 0 0 0 0l-0.1-0.1q0 0 0 0 0 0 0 0 0 0 0 0 0.1 0 0.1 0h-0.2q0 0 0 0 0 0 0.1 0 0 0 0 0 0 0 0 0h-0.2q0 0 0.1 0 0 0 0 0 0 0 0 0 0 0 0 0l-0.1 0.1q0 0 0 0 0 0 0 0 0-0.1 0.1-0.1 0 0 0 0l-0.2 0.1q0.1 0 0.1 0 0 0 0 0 0 0 0 0 0 0 0-0.1l-0.1 0.2q0 0 0 0 0.1-0.1 0.1-0.1 0 0 0 0 0 0 0 0l-0.1 0.1q0 0 0 0 0 0 0 0 0 0 0 0 0-0.1 0.1-0.1l-0.1 0.2q0 0 0 0 0 0 0-0.1 0 0 0 0 0 0 0 0l0.1 0.2q-0.1 0-0.1-0.1 0 0 0 0 0 0 0 0 0 0 0 0l0.1 0.1q0 0 0 0 0 0 0 0 0-0.1-0.1-0.1 0 0 0 0l0.1 0.1q0 0 0 0 0 0 0 0 0 0 0 0 0 0 0 0l0.1 0.1q0 0 0 0 0-0.1-0.1-0.1 0 0 0 0 0 0 0 0l0.2 0.1q-0.1 0-0.1 0 0 0 0 0 0 0 0-0.1-0.1 0-0.1 0l0.2 0.1q0 0 0 0 0 0 0 0-0.1 0-0.1 0 0 0 0 0l0.2-0.1q0 0-0.1 0 0 0.1 0 0.1 0 0 0 0 0 0 0 0l0.1-0.1q0 0 0 0 0 0 0 0 0 0-0.1 0 0 0.1 0 0.1l0.2-0.1q-0.1 0-0.1 0 0 0 0 0 0 0 0 0 0 0 0 0l0.1-0.1q0 0 0 0 0 0-0.1 0.1 0 0 0 0 0 0 0 0l0.1-0.2q0 0.1 0 0.1 0 0 0 0 0 0 0 0 0 0 0 0.1v-0.2q0 0 0 0 0 0 0 0 0 0.1 0 0.1 0 0 0 0v-0.2q0 0 0 0 0 0.1 0 0.1 0 0 0 0 0 0 0 0l-0.1-0.1q0 0 0 0 0 0 0 0 0 0 0.1 0.1 0 0 0 0l-0.1-0.2q0 0 0 0.1 0 0 0 0 0 0 0 0 0 0 0.1 0l-0.2-0.1q0 0 0 0 0 0 0 0 0 0 0.1 0 0 0 0 0.1 0 0 0.1 0z"/>
		</g>
	</g>
</svg>